<svg width="128" height="128" viewBox="0 0 128 128" fill="none" xmlns="http://www.w3.org/2000/svg">
  <!-- Background Glow -->
  <circle cx="64" cy="64" r="60" fill="url(#paint0_radial)" fill-opacity="0.3"/>
  
  <!-- Outer Hexagon Border (Neon Blue) -->
  <path d="M64 4L114.66 33.25V91.75L64 121L13.34 91.75V33.25L64 4Z" stroke="#00ffff" stroke-width="4" stroke-linejoin="round"/>
  
  <!-- Inner Glow -->
  <path d="M64 12L106 36.25V86.75L64 111L22 86.75V36.25L64 12Z" stroke="#00ffff" stroke-width="1.5" stroke-opacity="0.5" stroke-dasharray="8 4"/>
  
  <!-- The 'S' for Syntax (Neon Pink) -->
  <path d="M44 48C44 42 48 40 54 40H74C80 40 84 44 84 50C84 56 80 58 74 58H54C48 58 44 60 44 66C44 72 48 76 54 76H74C80 76 84 74 84 68" stroke="#ff00ff" stroke-width="12" stroke-linecap="round" stroke-linejoin="round"/>
  
  <!-- CRT Scanlines Overlay -->
  <rect x="0" y="0" width="128" height="128" fill="url(#scanlines)" fill-opacity="0.15"/>

  <defs>
    <radialGradient id="paint0_radial" cx="0" cy="0" r="1" gradientUnits="userSpaceOnUse" gradientTransform="translate(64 64) rotate(90) scale(60)">
      <stop stop-color="#00ffff"/>
      <stop offset="1" stop-color="#00ffff" stop-opacity="0"/>
    </radialGradient>
    
    <pattern id="scanlines" width="128" height="4" patternUnits="userSpaceOnUse">
      <rect width="128" height="2" fill="black"/>
    </pattern>
  </defs>
</svg>
