<svg xmlns="http://www.w3.org/2000/svg" width="512" height="512" viewBox="0 0 512 512">
    <!-- Solid Deep Background -->
    <rect width="512" height="512" rx="100" fill="#050505"/>
    
    <!-- Outer Tactical Ring -->
    <circle cx="256" cy="256" r="230" fill="none" stroke="#00ffff" stroke-width="4" opacity="0.2"/>

    <!-- The Hexagonal Shield Node -->
    <path d="M256,40 L442,148 V364 L256,472 L70,364 V148 Z" 
          fill="none" stroke="#00ffff" stroke-width="16" stroke-linejoin="round"/>

    <!-- High-Intensity Segmented 'S' -->
    <g transform="translate(156, 156) scale(2)">
        <path d="M 80 10 L 20 10 L 10 20 L 10 40 L 80 40 L 90 50 L 90 70 L 80 80 L 20 80" 
              fill="none" stroke="#00ffff" stroke-width="14" stroke-linecap="square" stroke-linejoin="miter"/>
        <path d="M 80 10 L 20 10 L 10 20 L 10 40 L 80 40 L 90 50 L 90 70 L 80 80 L 20 80" 
              fill="none" stroke="#ffffff" stroke-width="4" stroke-linecap="square" stroke-linejoin="miter" opacity="0.8"/>
    </g>

    <!-- Tactical HUD Accents -->
    <path d="M 120 120 L 80 120 L 80 160 M 392 120 L 432 120 L 432 160 M 120 392 L 80 392 L 80 352 M 392 392 L 432 392 L 432 352" 
          fill="none" stroke="#ffffff" stroke-width="14"/>
</svg>
